PathFileType	4	(X/Y/Z)	Patient4_TMGait_0pt3_03_left_07.trc.trc
DataRate	CameraRate	NumFrames	NumMarkers	Units	OrigDataRate	OrigDataStartFrame	OrigNumFrames
52.830188679245	52.830188679245	6	33	mm	52.830188679245	89	       141
Frame#	Time	Sacral			L.Shoulder			Chest			R.Shoulder			Neck			R.ASIS			L.ASIS			R.Thigh.Superior			R.Thigh.Lateral			R.Thigh.Inferior			R.Patella			L.Thigh.Superior			L.Thigh.Lateral			L.Thigh.Inferior			L.Patella			L.Shank.Superior			L.Shank.Lateral			L.Shank.Inferior			R.Shank.Superior			R.Shank.Lateral			R.Shank.Inferior			R.Heel			R.Midfoot.Superior			R.Midfoot.Lateral			R.Toe			L.Heel			L.Midfoot.Lateral			L.Midfoot.Superior			L.Toe			L.Elbow			L.Wrist			R.Elbow			R.Wrist			
		X1	Y1	Z1	X2	Y2	Z2	X3	Y3	Z3	X4	Y4	Z4	X5	Y5	Z5	X6	Y6	Z6	X7	Y7	Z7	X8	Y8	Z8	X9	Y9	Z9	X10	Y10	Z10	X11	Y11	Z11	X12	Y12	Z12	X13	Y13	Z13	X14	Y14	Z14	X15	Y15	Z15	X16	Y16	Z16	X17	Y17	Z17	X18	Y18	Z18	X19	Y19	Z19	X20	Y20	Z20	X21	Y21	Z21	X22	Y22	Z22	X23	Y23	Z23	X24	Y24	Z24	X25	Y25	Z25	X26	Y26	Z26	X27	Y27	Z27	X28	Y28	Z28	X29	Y29	Z29	X30	Y30	Z30	X31	Y31	Z31	X32	Y32	Z32	X33	Y33	Z33	

89	13.895714285714	763.792791611938	1007.083200099738	497.483821136201	990.591340349339	1431.694029668562	351.732712296780	1054.607934840083	1359.916508778853	529.734249422507	939.010733699942	1437.387205004035	681.390410277016	938.167989469093	1492.118795318366	503.166026626631	973.533850739742	938.173523274043	648.979005877660	999.045686858193	956.646517382176	376.566006274957	1034.493524429197	748.005593020292	615.192239365383	960.240029180956	631.562793132536	668.061458710494	1046.427884903378	587.195731476421	590.957030081492	1056.496202006157	498.722432451461	596.753092139537	1010.906636782668	728.915695715280	394.372129610456	913.614017908400	627.190585731494	315.621911887362	982.531930488616	533.849066303097	377.510241281426	968.941105149894	455.141800104967	374.267869571783	908.527777327161	399.621469237612	361.018572911102	779.256615309722	340.997320191874	299.993678672097	776.060876031826	211.200860882570	354.390682480180	1030.083930020484	408.551219270614	601.595014146550	961.902073890883	302.779509527468	663.809560687408	1006.174363237768	208.932090451739	599.525306680311	874.459932363133	43.873336732960	571.908940173431	1046.952277983986	97.171237638731	604.927711999857	959.174304693508	37.606922098235	644.750755047992	1167.225880800840	43.829398381941	629.595945437365	594.284997867942	114.399664362500	378.239766316504	664.561450669618	83.217988165406	302.258652503585	762.670574297975	113.283276143678	330.385884434321	863.588795695368	33.116215924337	307.411954992143	1121.303302037599	1122.977029085914	216.324150174246	1379.261224919507	1089.439162093735	239.226423923149	813.543110955784	1107.880329915786	778.465536268813	852.794144541321	851.508896592115	813.582900846826	
90	13.914642857143	764.240553893783	1007.731428999057	504.637344360413	989.008635443649	1432.586116985202	356.200404588216	1055.403811847971	1360.606994824061	533.319969779846	941.752726889848	1437.846616036028	686.543753355190	938.479877358598	1492.927691629535	508.174552853860	975.700606278170	938.663239585208	653.527116126017	998.148229673014	957.667038196733	380.835021284162	1034.571247389953	747.111322372180	619.790628369621	958.733376114765	631.306004090555	671.868657213046	1044.285108416573	586.419531974493	594.479018872931	1053.359610923963	497.985130363927	599.495744847215	1016.151304143467	731.724764997501	399.534439077494	922.959802105959	627.473629695302	320.602755060415	994.750379968161	535.598338105107	382.790594973643	982.215280826060	455.361896895359	378.489036478357	919.463562728314	400.340682348326	364.881369151497	788.149173355203	347.049224871912	303.327269377785	780.591626083263	216.868387007298	356.135327159555	1026.459475160263	408.042076934852	603.834487729747	957.820510249756	302.286974574232	665.447581779628	1001.399059844202	208.625651202815	600.496672105325	869.030879686423	43.766711994638	572.094512507164	1041.372553053073	97.175397581346	605.149335839091	953.755051430375	37.530160016188	644.903914572990	1161.777000544117	43.906930452506	629.795963558291	595.270157730979	129.013474635769	378.740300941028	663.902423892489	94.221122355001	302.717289790898	763.558444066712	118.125902920498	331.133271511930	858.850463147350	32.159405603118	307.942484360371	1113.404085543804	1118.945917457495	223.062906897521	1369.959990125999	1073.574517842024	244.064073639270	821.889415009401	1107.347777843862	788.412301050351	867.375119447499	852.287240112756	825.297064558050	
91	13.933571428571	764.395945896440	1008.140096384042	511.558941993577	987.033439999428	1433.211309842546	360.355656820343	1055.844294187889	1361.110164772220	536.557073388484	944.215216655095	1438.139891298921	691.363268226354	938.540376522761	1493.538653169770	512.877987347787	977.592180471923	938.985448968218	657.810260310721	996.934228690999	958.516657752776	384.825420683660	1034.498749979643	746.204544917944	623.966455112676	957.293223481022	630.926460515286	675.365222712845	1042.185873168264	585.618021114774	597.636588263246	1050.316230197153	497.188714621656	601.936868757977	1021.481681381741	734.772178586970	404.852863319108	932.835184941339	627.892317142053	325.688932215156	1007.318602218015	537.749577331771	388.567123900636	995.969602968508	456.009288203163	383.259007517113	931.065550955027	401.333240842160	369.111885566540	797.936404529954	353.342917473260	306.956287719553	785.969468363070	222.909610882319	358.256903675654	1022.900325857298	407.458386608371	605.842653081542	953.784704269343	301.768579636549	666.897879792302	996.632866212015	208.274703643239	601.345400814294	863.537526754652	43.684538693142	572.237752867662	1035.741534407806	97.163185853847	605.327050635158	948.258972109709	37.468693746624	645.032506395545	1156.252716928995	43.963014289389	629.984671845064	597.417708993196	144.015790460534	379.631597545074	664.338886328292	105.882760166187	303.489227649428	765.308801291112	123.538506227710	332.258688030595	854.864442658041	31.440788501869	308.579757806349	1104.611591209436	1114.596401342380	229.581362306246	1358.774023619347	1055.912338660564	248.725506038344	830.816776727121	1106.544402471507	798.164678208342	883.119243241397	853.045179214587	836.584473660909	
92	13.952500000000	764.301099261835	1008.300571846083	518.231435374640	984.665715907499	1433.570029538113	364.200602669942	1055.913617536235	1361.451367977092	539.457170511085	946.362243474524	1438.282760201182	695.847012235939	938.328789211727	1493.955031754493	517.267867237339	979.247833664218	939.147411342777	661.816193896910	995.456062400285	959.210900398786	388.545390449296	1034.379445441852	745.318186258796	627.648524321279	956.085196680902	630.437330793443	678.524545154253	1040.283925776630	584.807159890768	600.375231778425	1047.549361454918	496.320531723624	604.035725791784	1026.741381680766	738.034036729426	410.271914973177	942.955370303681	628.524622527794	330.831681963899	1019.905063251357	540.329480006089	394.727546907202	1009.879626754300	457.136968270667	388.468581672054	943.061022492444	402.642687969756	373.630716331617	808.343872809165	359.728825510417	310.891784470490	792.155348297287	229.130575978166	360.757571056322	1019.547939918317	406.790253411277	607.583084313691	949.915897561445	301.235636076940	668.153285033015	991.935801318082	207.868824543108	602.045411292017	857.970056086324	43.633146017652	572.341533220728	1030.067168876922	97.127669169560	605.455635924287	942.681757278163	37.425130724538	645.133555668369	1150.657232751779	43.967186610944	630.152227583217	600.795323436465	158.738351995024	381.030272747943	666.011651868002	117.702604171846	304.660160010126	768.041288532390	129.338558505827	333.772981022588	852.036413128106	31.127014144826	309.296106062700	1094.967412071023	1110.006455660949	235.847610110334	1345.474940317137	1036.623084930387	253.207014520552	840.284570910435	1105.496598407016	807.594635949387	900.024668650211	853.869402630724	847.297857662004	
93	13.971428571429	764.002934746588	1008.221077253053	524.641272251059	981.920091714962	1433.677014544120	367.746998220139	1055.615675101565	1361.662905229534	542.040534070551	948.180728651690	1438.299657091367	700.003690651187	937.834345791107	1494.190561512232	521.345572644674	980.702153248219	939.161868445274	665.543757554671	993.774066428585	959.770640886606	392.018929212261	1034.293584475608	744.471451966289	630.831735068658	955.210468349574	629.851117779145	681.349698114819	1038.690406804822	583.996826518140	602.696911629424	1045.190062544412	495.372454935645	605.797440590294	1031.774908763009	741.470091555701	415.712675524022	953.022066272341	629.426084970745	335.955632206663	1032.197787519846	543.333416922655	401.098305581082	1023.636305753616	458.768957021691	393.945729707906	955.187414286011	404.284949913552	378.316814712670	819.094342562200	366.007132793522	315.117695725244	799.132812234778	235.276654107601	363.613632112031	1016.502135353308	406.034922721036	609.055272986316	946.294254277580	300.698269445292	669.227586874485	987.353716727225	207.407270820485	602.596525027929	852.333635522692	43.616352734845	572.415029550370	1024.365353254759	97.071330645964	605.540931663505	937.034873470738	37.399650934357	645.207846536764	1145.005519624553	43.906834482254	630.294214835998	605.468722390383	172.416621980372	383.038834012603	669.065516463833	129.083734111903	306.299735808582	771.909160050301	135.273356133378	335.662477958508	850.842320543220	31.369174071107	310.049740526678	1084.520209746683	1105.263313631670	241.844214407580	1329.850762638273	1015.956870003159	257.509436399879	850.221335790590	1104.251585115692	816.574243054052	918.048516097817	854.878495948631	857.293274244697	
94	13.990357142857	763.547232914904	1007.922633925300	530.776800024129	978.826643580187	1433.556029298249	371.015126798462	1054.973058283168	1361.776760969423	544.334661367802	949.678656245260	1438.217265213115	703.850351261620	937.057713533129	1494.264536415610	525.122568700096	981.981604752370	939.043696030534	669.002114637537	991.950004466529	960.216012503710	395.280966704257	1034.294711777360	743.670584748629	633.566358422568	954.707785063731	629.179477077691	683.867721079335	1037.470344451114	583.191492946476	604.649867547419	1043.312527985383	494.341205431039	607.264982267467	1036.440628786159	745.022849343883	421.072835940009	962.743655674660	630.621673928012	340.961273824779	1043.922517342171	546.723485851528	407.457442499612	1036.962859538321	460.899256277496	399.470291990247	967.210748417854	406.245215729863	383.015128593709	829.933698263440	371.936334886178	319.584047107191	806.913345766098	241.048165373054	366.771772363476	1013.818015143857	405.195484610892	610.289024756201	942.956981339246	300.165086289780	670.150864067395	982.916266139108	206.897018586875	603.019502872696	846.643306540009	43.636431504384	572.470137101547	1018.656771279416	97.002555545020	605.596612881822	931.338969910886	37.391031969034	645.258892672994	1139.317969109453	43.781073793140	630.410689047004	611.509254342363	184.256657158184	385.727058505265	673.647206343315	139.383352332244	308.447649687173	777.092650777519	141.035099202356	337.885954042715	851.788169287837	32.264646146121	310.785133468895	1073.318670465394	1100.457335616231	247.566393700931	1311.722673727598	994.245900885949	261.638590930980	860.532056861281	1102.865626055189	824.982991962687	937.112505992334	856.210021853541	866.435611664343	
